<?xml version="1.0" standalone="no"?><!DOCTYPE svg PUBLIC "-//W3C//DTD SVG 1.1//EN" "http://www.w3.org/Graphics/SVG/1.1/DTD/svg11.dtd"><svg t="1712906415089" class="icon" viewBox="0 0 1024 1024" version="1.1" xmlns="http://www.w3.org/2000/svg" p-id="1030" xmlns:xlink="http://www.w3.org/1999/xlink" width="16" height="16"><path d="M874.010947 273.327158L686.322526 88.656842a55.808 55.808 0 0 0-39.235368-16.168421H174.699789a54.864842 54.864842 0 0 0-55.511578 54.649263v758.245053a54.864842 54.864842 0 0 0 55.511578 54.649263h660.210527a54.864842 54.864842 0 0 0 55.511579-54.649263v-573.44a54.164211 54.164211 0 0 0-16.168421-38.615579z m-230.453894-144.896l181.571368 178.714947h-181.571368z m191.676631 486.265263H504.832v54.218105h-55.161263v216.441263h-55.080421v-216.441263h-55.107369v-54.218105H174.268632v-54.218105h165.160421V506.341053h55.080421V126.706526h55.080421V506.341053h55.242105v54.218105h330.428632z" p-id="1031"></path></svg>